inDegrees=no
num_controls=7
num_derivatives=13
num_iterations=142
num_multipliers=7
num_parameters=0
num_slacks=7
num_states=26
objective=0.444908
objective_accelerations=0.058392
objective_balance=0.003710
objective_effort=0.023585
objective_height=0.353720
objective_ligament=0.005501
solver_duration=2023.814113
status=Solve_Succeeded
success=true
DataType=double
version=3
OpenSimVersion=4.5
endheader
time	/jointset/ground_pelvis/pelvis_tilt/value	/jointset/ground_pelvis/pelvis_tx/value	/jointset/ground_pelvis/pelvis_ty/value	/jointset/hip_l/hip_flexion_l/value	/jointset/hip_l/hip_adduction_l/value	/jointset/hip_l/hip_rotation_l/value	/jointset/back/lumbar_extension/value	/jointset/patellofemoral_l/patellar_flexion_l/value	/jointset/knee_l/knee_flexion_l/value	/jointset/knee_l/knee_adduction_l/value	/jointset/knee_l/knee_rotation_l/value	/jointset/ankle_l/ankle_angle_l/value	/jointset/subtalar_l/subtalar_angle_l/value	/jointset/ground_pelvis/pelvis_tilt/speed	/jointset/ground_pelvis/pelvis_tx/speed	/jointset/ground_pelvis/pelvis_ty/speed	/jointset/hip_l/hip_flexion_l/speed	/jointset/hip_l/hip_adduction_l/speed	/jointset/hip_l/hip_rotation_l/speed	/jointset/back/lumbar_extension/speed	/jointset/patellofemoral_l/patellar_flexion_l/speed	/jointset/knee_l/knee_flexion_l/speed	/jointset/knee_l/knee_adduction_l/speed	/jointset/knee_l/knee_rotation_l/speed	/jointset/ankle_l/ankle_angle_l/speed	/jointset/subtalar_l/subtalar_angle_l/speed	/forceset/tau_hip_flexion_l	/forceset/tau_hip_adduction_l	/forceset/tau_hip_rotation_l	/forceset/tau_knee_flexion_l	/forceset/tau_ankle_angle_l	/forceset/tau_subtalar_angle_l	/forceset/tau_lumbar_extension	lambda_cid13_p0	lambda_cid13_p1	lambda_cid13_p2	lambda_cid13_p3	lambda_cid13_p4	lambda_cid13_p5	lambda_cid14_p0	/jointset/ground_pelvis/pelvis_tilt/accel	/jointset/ground_pelvis/pelvis_tx/accel	/jointset/ground_pelvis/pelvis_ty/accel	/jointset/hip_l/hip_flexion_l/accel	/jointset/hip_l/hip_adduction_l/accel	/jointset/hip_l/hip_rotation_l/accel	/jointset/back/lumbar_extension/accel	/jointset/patellofemoral_l/patellar_flexion_l/accel	/jointset/knee_l/knee_flexion_l/accel	/jointset/knee_l/knee_adduction_l/accel	/jointset/knee_l/knee_rotation_l/accel	/jointset/ankle_l/ankle_angle_l/accel	/jointset/subtalar_l/subtalar_angle_l/accel	gamma_cid13_p0	gamma_cid13_p1	gamma_cid13_p2	gamma_cid13_p3	gamma_cid13_p4	gamma_cid13_p5	gamma_cid14_p0
1	-0.5689708526844099	-0.08916413221675297	0.5663183055410974	1.877524925231494	-0.4663787600431047	0.01621793875488575	-0.2617944685766656	1.390978965138929	1.390978965144233	-0.08230636622857837	-0.174529194459933	0.2048048537195559	-0.01770897855248793	-0.01587936757402473	0.01140973692953234	0.003633791693685883	-0.005861832887507305	-0.002542608577858591	0.003262215557828229	-1.780154231419537e-05	0.0006039473548744949	0.0006039473548745463	-0.005748756637770966	-6.419052986951837e-05	0.02214327730091728	0.00948046386192423	-0.3459802456309023	0.009170111826094784	0.000301231794657738	-0.297990431124216	0.04196378687737765	0.03376298100227377	0.2927503528358552	-26.61201131496192	-10.77798582228769	2.266817904654054	7.564784595034249	-645.2347894226676	-48.03889094343629	-1.285804111410212	1.590457862727737	0.2503210090253291	2.012247092362202	-6.997198715654434	-0.1000200990822448	-2.354914250944315	-0.02070783002266887	-5.326169057298199	-5.32616905729833	-0.6135822785295491	-0.03306647655850401	-0.6011081238002742	-0.435763229347634	4.984241917000826e-09	1.864599300118474e-08	-1.389086034367748e-08	2.376184855180661e-09	-2.08559124789143e-09	2.538601390784829e-08	2.424543810247696e-09
1.01	-0.5690511178254144	-0.08903757605933152	0.5664550966526549	1.877117826223163	-0.4664081045960946	0.0161316755375202	-0.2617946264453078	1.390718822811253	1.390718822814524	-0.08239171387237121	-0.1745301153578039	0.2049963963538859	-0.01763448509421387	-0.0001749039786671415	0.01390418917726616	0.02371933197931948	-0.07554467904686477	-0.003320039008988424	-0.02050811400964817	-1.326122312503851e-05	-0.05262798297557986	-0.05262798297558168	-0.01131844082158186	-0.0001137089229737933	0.01615933536277821	0.005422350908413752	-0.3458202278193829	0.009260919308442776	0.0002853926375678349	-0.2978658419014445	0.04185640817860291	0.03378040605868417	0.2926325642082706	-26.63122527059078	-10.78698605564501	2.273731803442101	7.480811429246568	-645.057130367511	-48.05635653019479	-1.29098157967154	1.560252815748579	0.2494120746461846	2.005940206791199	-6.951835640581702	-0.06566575385483904	-2.387086487704652	0.01111160746029873	-5.321038487461061	-5.32103848746122	-0.5283153298952313	0.01005565898569012	-0.5979236583541456	-0.3902218031382853	-3.042653447257707e-09	1.017912746055546e-08	2.792512073573958e-08	2.73945904522771e-09	-1.236664370656388e-08	7.911345704102127e-08	-1.010501939703518e-08
1.02	-0.5689743758889041	-0.08888599443103294	0.5667925897090944	1.876014297138337	-0.466445035701141	0.01580791018886834	-0.2617947235818506	1.389926494486965	1.389926494488202	-0.0825326891263201	-0.1745313414037313	0.2051279222829278	-0.01760045006043203	0.01552204792904368	0.01641483110495683	0.0437741806700429	-0.1451478481864337	-0.004059918989177249	-0.04423821069933905	-5.655121112378413e-06	-0.1058332519677151	-0.1058332519677169	-0.01687427866892808	-0.0001252201291948921	0.0101399362433018	0.001388778963481789	-0.3456602100078586	0.009351726790790457	0.0002695534804895539	-0.2977412526786738	0.04174902947982684	0.03379783111509325	0.292514775580691	-26.65598850574439	-10.79489327305198	2.280332869973737	7.417761076719082	-644.9572560847474	-48.0513264594786	-1.306230173255311	1.588955525198383	0.2535589450166993	2.006108773380168	-6.981263311696737	-0.09251000889403353	-2.346867675387202	-0.02009467345796066	-5.320836789634387	-5.320836789634133	-0.6108130112366114	-0.02546503918184981	-0.6081995600677439	-0.4308550276319189	-1.158868626239865e-08	1.002003543048697e-09	6.944054038737537e-08	3.392601072850819e-09	-2.25304246072448e-08	1.319788460808023e-07	-2.257080517410764e-08
1.03	-0.5687406273853931	-0.08870919066310844	0.5673304038701524	1.874215248042639	-0.4664891039408592	0.01524713773452098	-0.2617947438329621	1.388602332090588	1.388602332090003	-0.08272912962021206	-0.1745324637774875	0.205198996877237	-0.01760657808123625	0.03123309798864643	0.01895199560668794	0.06377617772732025	-0.2146366943967826	-0.004738978011284623	-0.06789983273182916	1.448592418685855e-06	-0.1589865377814375	-0.1589865377814381	-0.02240790389648515	-8.81364095852586e-05	0.004061326754367289	-0.00260379795270984	-0.3452350044997701	0.009514873370688333	0.0002218308908983809	-0.2974561955544712	0.04165777112396343	0.03389352529190907	0.2922213219114537	-26.6561170035712	-10.84877576875191	2.30302415645715	7.297823886802434	-644.5730711992642	-48.1190554153472	-1.331761486701697	1.562992747303579	0.2547069854527363	1.99536749957709	-6.928908206594216	-0.05340028037342517	-2.373363781523817	0.01108944782107087	-5.310663965597229	-5.310663965597199	-0.5237629019179184	0.01999156109287772	-0.6097398068471048	-0.381882994073969	-2.014001639846696e-08	-8.182367908915998e-09	1.109528930856664e-07	4.048700935551238e-09	-3.269300885937479e-08	1.848354386502427e-07	-3.503594016107591e-08
1.04	-0.5683496057810942	-0.08850683289362631	0.5680678624673184	1.871722067898659	-0.4665395220570993	0.01445023819698078	-0.2617946977361298	1.386747018938401	1.386747018935994	-0.08298073149105939	-0.1745328760171542	0.2052088757439486	-0.01765231666529462	0.04697666808674397	0.0215256314164802	0.0837030678916203	-0.2839740578427415	-0.005329894293565336	-0.09146362733807525	7.614468446689898e-06	-0.2120634031294032	-0.2120634031294037	-0.02790655406014887	1.680665244534107e-05	-0.002099209276199614	-0.006533333687348604	-0.3448097989916806	0.009678019950588174	0.0001741083013175067	-0.2971711384302688	0.04156651276810019	0.03398921946872732	0.2919278682422171	-26.66184437787365	-10.90157913085443	2.325430597826559	7.198912968911623	-644.2672934634901	-48.16486478758394	-1.367849590368043	1.595459532897341	0.2608532066289175	1.991087394784712	-6.950966758818737	-0.07488146092864933	-2.327302190138345	-0.02028224095858669	-5.305552696483068	-5.305552696483051	-0.6038179984579204	-0.01189317069755769	-0.6245848683942293	-0.4182467913212853	-2.671898249786313e-08	-1.247466339663112e-08	1.536696222964301e-07	6.410438611819585e-09	-4.18539532809556e-08	2.316021240737369e-07	-4.527016770913367e-08
1.05	-0.5678009832727883	-0.08827853927442748	0.5690041447100651	1.868536463432536	-0.4665951486387533	0.01341848305049951	-0.2617945994461635	1.384361363443118	1.384361363441339	-0.08328704897254204	-0.1745315102586963	0.2051566743159072	-0.01773674486991356	0.06275209653066573	0.02414069041575445	0.103533921933108	-0.3531010049149657	-0.005752544453409394	-0.114840795644385	1.286102640260658e-05	-0.2650510116376905	-0.2650510116376868	-0.03333884582261131	0.0003107697921571525	-0.008360711854436235	-0.01030972411926421	-0.3440715826480419	0.00992430643961863	9.72226846364695e-05	-0.2967777773747656	0.04154281752932162	0.03415400880447288	0.2914162024700898	-26.6272307653506	-10.99900174051884	2.363571895558116	7.042065817880768	-643.6775259094642	-48.28730567401349	-1.414948237428228	1.569218183464423	0.262973734972126	1.976155311199784	-6.886690870380868	-0.01954413482580691	-2.335967558547828	0.01105072935283564	-5.29285109488352	-5.292851094882867	-0.5102400649648003	0.05825405303857192	-0.6298774330936766	-0.350968259723486	-3.323631222111331e-08	-1.661408151046347e-08	1.964239882732085e-07	8.825477469761921e-09	-5.098359645783175e-08	2.781784998989204e-07	-5.543467939972548e-08
1.06	-0.5670944797433783	-0.0880238667675568	0.5701381496737005	1.8646609630579	-0.4666537191902682	0.01215434753942497	-0.261794424165585	1.381446334629373	1.381446334628225	-0.08364715043161119	-0.1745255622694848	0.2050412689659726	-0.01785766359697102	0.07855287230758065	0.02680140895084889	0.123247612069357	-0.421953239545454	-0.005918688265797169	-0.1379397002575169	2.301259156446973e-05	-0.3179380668212562	-0.3179380668212474	-0.0386633495780496	0.0009332528011884631	-0.01473999365488475	-0.0138314381750521	-0.3433333663043954	0.01017059292865874	2.033706796818947e-05	-0.2963844163192629	0.04151912229054448	0.03431879814023128	0.2909045366979691	-26.59827948734231	-11.09530491296979	2.401388612586131	6.906338792359132	-643.1671339925218	-48.38905416073873	-1.473553602246143	1.600528999495965	0.2699851137929693	1.967654613736989	-6.896024270471548	-0.02358019143743904	-2.271649451502797	-0.01930123951743607	-5.285442031538747	-5.285442031538554	-0.5822603970531088	0.053810803166255	-0.6481407128365946	-0.3673115160957913	-4.099335283957517e-08	-2.492227198376847e-08	2.364643225561756e-07	9.874775118505731e-09	-6.067209158975217e-08	3.24408304801541e-07	-6.661202124413355e-08
1.07	-0.5662297524237352	-0.0877423141255933	0.5714686292637042	1.86009840398864	-0.4667126897007182	0.01066064467578273	-0.2617941742876465	1.378003050697682	1.378003050697398	-0.08405998688902459	-0.1745118855689509	0.2048614170205844	-0.01801258810345042	0.09440368114767476	0.0295209202422987	0.1428211552898317	-0.4905018615659041	-0.005831426249349124	-0.1607503110120312	2.477385543179098e-05	-0.3706912928386004	-0.3706912928385849	-0.04388487292960944	0.001849197864112811	-0.02125566552399353	-0.01711257018568718	-0.3422754739551178	0.01044398992455543	-8.851445116973863e-05	-0.2958782202498326	0.04160770583827129	0.03455649641983651	0.2901769192520263	-26.5124204896443	-11.24143383203685	2.456512061911596	6.679784852416048	-642.3504291606573	-48.56573397492251	-1.544335138336949	1.579012304573344	0.2747064410029811	1.948117364479248	-6.825783580497143	0.03145036186939911	-2.278231441271738	0.009586438074167336	-5.266133157579475	-5.266133157578611	-0.4892660681202933	0.1176217109788048	-0.657070356289899	-0.3024073143711318	-4.881633552693129e-08	-3.345220566768376e-08	2.76360293451174e-07	1.085142695824961e-08	-7.03903128894941e-08	3.70619675080621e-07	-7.784323703289356e-08
1.08	-0.5652061859200292	-0.08743321190987891	0.5729940269235679	1.854852058216642	-0.4667694733982671	0.008940342793827657	-0.2617939724713187	1.374033060451668	1.374033060452249	-0.08452447213273505	-0.1744876223471518	0.2046156503700368	-0.01819910258420094	0.1103207091200568	0.03231132370102777	0.1622312260413737	-0.55871058009297	-0.005481325685563268	-0.1832595039203851	1.340026871337778e-05	-0.4232793296858333	-0.4232793296858125	-0.04899310683768415	0.003050557051967721	-0.02792293468677721	-0.02014943302927307	-0.3412175816058396	0.01071738692045505	-0.0001973659703075538	-0.2953720241804017	0.04169628938599917	0.03479419469944606	0.2894493018060834	-26.4322855619114	-11.38637501200259	2.511234373648354	6.474424262304392	-641.614094643291	-48.72355736918117	-1.62802432724597	1.613772825953543	0.2841635472488281	1.934960119950467	-6.828043571794671	0.02898751803010564	-2.21136588227072	-0.02192820963462052	-5.2524041975165	-5.252404197516561	-0.5596025083560914	0.1108936281523344	-0.678460171571566	-0.3184576826859689	-5.523549396358246e-08	-3.931631436850794e-08	3.152498193858661e-07	1.256025611576076e-08	-7.893504614673674e-08	4.103219686885478e-07	-8.743646191397949e-08
